PathFileType	4	(X/Y/Z)	C:/Users/opensim2020/Desktop/walking_exp_matlab/subject03_walking06_straight_02.trc																																																																																																																																		
DataRate	CameraRate	NumFrames	NumMarkers	Units	OrigDataRate	OrigDataStartFrame	OrigNumFrames																																																																																																																														
100	100	4	44	mm	100	1370	238																																																																																																																														
Frame#	Time	LFHD			RFHD			LBHD			RBHD			C7			T10			CLAV			STRN			RBAK			LSHO			LUPA			LELB			LFRM			LWRA			LWRB			LFIN			RSHO			RUPA			RELB			RFRM			RWRA			RWRB			RFIN			LASI			RASI			LPSI			RPSI			LTHI			LKNE			LTIB			LANK			LHEE			LTOE			RTHI			RKNE			RTIB			RANK			RHEE			RTOE			*39			*40			*41			*42			*43		
		X1	Y1	Z1	X2	Y2	Z2	X3	Y3	Z3	X4	Y4	Z4	X5	Y5	Z5	X6	Y6	Z6	X7	Y7	Z7	X8	Y8	Z8	X9	Y9	Z9	X10	Y10	Z10	X11	Y11	Z11	X12	Y12	Z12	X13	Y13	Z13	X14	Y14	Z14	X15	Y15	Z15	X16	Y16	Z16	X17	Y17	Z17	X18	Y18	Z18	X19	Y19	Z19	X20	Y20	Z20	X21	Y21	Z21	X22	Y22	Z22	X23	Y23	Z23	X24	Y24	Z24	X25	Y25	Z25	X26	Y26	Z26	X27	Y27	Z27	X28	Y28	Z28	X29	Y29	Z29	X30	Y30	Z30	X31	Y31	Z31	X32	Y32	Z32	X33	Y33	Z33	X34	Y34	Z34	X35	Y35	Z35	X36	Y36	Z36	X37	Y37	Z37	X38	Y38	Z38	X39	Y39	Z39	X40	Y40	Z40	X41	Y41	Z41	X42	Y42	Z42	X43	Y43	Z43	X44	Y44	Z44
																																																																																																																																					
90	0.89	-222.15343	1615.23083	917.30646	-231.60138	1622.79956	1050.13416	-351.00778	1573.44666	913.97076	-355.46707	1580.57739	1044.6947	-385.01672	1415.2406	970.00073	-423.1088	1102.65552	974.39484	-262.74951	1339.28638	979.78888	-219.65761	1174.86829	981.20306	-443.53311	1243.39636	1069.11035	-295.78104	1374.77771	820.69177	-312.47064	1175.43872	752.7373	-317.03677	1051.47107	745.6568	-305.77225	921.60193	751.69159	-306.01416	803.02142	785.53766	-319.84076	809.15668	731.07349	-325.41919	723.39722	746.01404	-315.79907	1365.9917	1135.20007	-299.09558	1144.88733	1207.37451	-271.05194	1035.61328	1219.20251	-230.6929	904.98871	1217.43176	-182.58521	818.79431	1179.64966	-213.02625	806.04303	1222.38733	-177.59953	740.65015	1208.43958	-243.3062	943.27533	875.12775	-267.9104	934.60602	1110.77002	-410.2504	964.0191	908.8371	-422.9101	963.67249	1057.96826	-273.147	642.42383	828.8866	-242.68243	467.12946	871.45026	-265.20425	273.97067	868.74304	-249.48068	64.01282	909.26825	-287.59955	28.81866	944.42456	-96.8124	31.98705	940.55682	-318.77612	631.11041	1153.9325	-292.67676	451.91513	1133.87305	-439.75159	330.28491	1125.27551	-603.93976	197.73056	1069.9248	-646.73462	213.81694	1010.41229	-563.88812	59.85555	1057.74988	-305.93027	1681.74133	960.0459	NaN	NaN	NaN	NaN	NaN	NaN	NaN	NaN	NaN	NaN	NaN	NaN
91	0.9	-212.75748	1615.86182	917.09546	-222.27843	1623.38501	1049.93872	-341.70367	1573.99792	913.69806	-346.15463	1581.14807	1044.39575	-375.7186	1416.02515	969.6687	-414.28918	1103.22021	973.92542	-253.70895	1339.77698	979.63293	-210.82643	1175.24341	980.82471	-434.86783	1243.75366	1068.28723	-286.2428	1375.01489	820.54016	-300.48642	1175.68884	751.99646	-303.26749	1051.59314	744.47809	-289.436	922.03375	750.74194	-287.76202	803.5932	784.65875	-301.20981	809.4762	730.14575	-304.83258	723.68054	745.07288	-306.9335	1366.07385	1135.07532	-291.60541	1144.59521	1207.15625	-264.41339	1035.00623	1219.3053	-226.53897	903.62659	1218.29468	-179.81122	816.25439	1181.33679	-210.83511	804.37408	1223.88965	-176.82208	738.15143	1210.51379	-234.6723	943.66803	874.16583	-259.15329	934.76392	1110.27124	-401.73224	964.3457	908.29871	-414.03079	963.30853	1057.36462	-266.67111	642.98474	828.10388	-238.17073	467.18063	870.91736	-262.84845	274.26044	868.2724	-249.35799	64.05676	909.30432	-287.60535	28.90931	944.37018	-96.68215	31.78712	940.55139	-304.66431	631.65424	1153.32043	-273.59158	453.53787	1134.31665	-420.8851	333.58521	1124.71899	-586.0188	202.04663	1070.15161	-629.18567	216.99945	1010.35846	-544.00293	64.72606	1060.85046	-297.35663	1680.46228	958.39923	NaN	NaN	NaN	NaN	NaN	NaN	NaN	NaN	NaN	NaN	NaN	NaN
92	0.91	-203.29506	1616.1521	916.99207	-212.96773	1623.91064	1049.73376	-332.18378	1574.39465	913.43274	-336.84152	1581.71021	1044.19336	-366.47089	1416.78748	969.42896	-405.45502	1103.78906	973.51672	-244.7491	1340.22607	979.54431	-202.44991	1175.55371	980.44177	-426.38379	1244.15271	1067.4447	-276.9628	1375.22375	820.39862	-288.47961	1175.94299	751.40295	-289.10184	1051.91882	743.38861	-272.98862	922.62061	749.89319	-269.23309	804.26825	783.79651	-282.44058	809.79315	729.3252	-283.70767	724.15344	744.12622	-298.17743	1366.10327	1135.14136	-284.17462	1144.25537	1206.95923	-257.80612	1034.35449	1219.44971	-222.3651	902.32648	1219.18433	-177.15877	813.70776	1182.9707	-208.47424	802.73657	1225.44653	-175.88861	735.87683	1212.63171	-226.12463	944.22473	873.17377	-249.1611	935.32013	1109.90588	-393.2579	964.71277	907.96368	-405.08896	963.11334	1056.95105	-259.53622	643.44312	827.25391	-233.48949	467.37061	870.31763	-260.47406	274.4483	868.06641	-249.16057	64.00612	909.57764	-287.60132	29.04283	944.38489	-96.45762	31.56701	940.61328	-290.84174	632.63403	1152.95959	-254.87686	455.55643	1134.5293	-401.78207	336.48187	1124.42993	-567.18414	205.04372	1070.47327	-610.789	218.8349	1010.40143	-523.28705	68.44724	1063.28088	-286.89474	1683.54553	959.50909	NaN	NaN	NaN	NaN	NaN	NaN	NaN	NaN	NaN	NaN	NaN	NaN
93	0.92	-193.90459	1616.56763	916.95404	-203.70087	1624.3667	1049.67041	-322.79254	1574.86841	913.29358	-327.61227	1582.19788	1044.00916	-357.3306	1417.54089	969.21857	-396.81808	1104.39417	973.17969	-235.91354	1340.58557	979.47479	-194.54887	1175.79602	980.06677	-417.98312	1244.53833	1066.59009	-267.79095	1375.42761	820.34192	-276.54843	1176.23352	750.8985	-274.93765	1052.31165	742.42651	-256.33154	923.3053	749.10559	-250.47211	805.19312	782.96332	-263.43698	810.36481	728.43732	-262.12924	724.97839	743.13458	-289.49365	1365.75342	1135.10181	-276.79272	1143.94556	1206.81799	-251.43837	1033.75842	1219.68347	-218.25645	901.14844	1220.10242	-174.46933	811.54297	1184.60608	-206.15825	801.341	1227.03674	-174.84692	733.88928	1214.86084	-217.84245	944.83881	872.08588	-240.02603	935.91254	1109.1759	-384.97763	965.16095	907.77667	-396.16611	963.16058	1056.68188	-253.22696	643.92657	827.27502	-228.83788	467.49219	869.98157	-258.03259	274.69714	867.95227	-249.07124	64.17651	909.75714	-287.59592	29.21506	944.47736	-96.23704	31.41774	940.71423	-276.76315	633.80847	1152.49084	-236.1618	457.85626	1134.80835	-382.36954	338.61606	1124.69043	-547.64941	206.79341	1070.81921	-591.80896	219.35172	1010.81152	-501.53091	70.96711	1064.91418	-277.45502	1683.38379	959.46613	NaN	NaN	NaN	NaN	NaN	NaN	NaN	NaN	NaN	NaN	NaN	NaN
